<svg width="678" height="588" viewBox="0 0 678 588" fill="none" xmlns="http://www.w3.org/2000/svg">
<g opacity="0.1">
<path opacity="0.1" d="M434.462 319.568L412.476 332.331L390.356 319.568L412.342 306.804L434.462 319.568Z" fill="#0071BC"/>
</g>
<g opacity="0.1">
<path opacity="0.1" d="M406.461 336.341L393.631 343.825L380.666 336.341L393.497 328.923L406.461 336.341Z" fill="#0071BC"/>
</g>
<g opacity="0.1">
<path opacity="0.1" d="M338.299 366.078L318.318 377.639L298.203 366.078L318.184 354.451L338.299 366.078Z" fill="#0071BC"/>
</g>
<g opacity="0.1">
<path opacity="0.1" d="M263.52 338.813L250.623 346.298L237.725 338.813L250.556 331.329L263.52 338.813Z" fill="#0071BC"/>
</g>
<g filter="url(#filter0_f_347_4)">
<path d="M445.413 285.1C452.249 289.044 452.254 298.91 445.421 302.861L351.403 357.502C344.124 361.732 335.138 361.746 327.847 357.537L233.114 302.861C226.269 298.903 226.259 289.025 233.095 285.052L327.068 230.442C334.345 226.213 343.329 226.199 350.62 230.406L445.413 285.1Z" fill="url(#paint0_linear_347_4)"/>
</g>
<path d="M460.791 263.674L460.724 269.087L339.635 339.455V334.043L460.791 263.674Z" fill="url(#paint1_linear_347_4)"/>
<path d="M339.635 334.043V339.455L217.744 269.087V263.674L339.635 334.043Z" fill="url(#paint2_linear_347_4)"/>
<path d="M460.791 263.674L339.635 334.042L217.744 263.674L338.833 193.306L460.791 263.674Z" fill="url(#paint3_linear_347_4)"/>
<path d="M439.34 263.674L339.568 321.613L239.195 263.674L338.967 205.736L439.34 263.674Z" fill="url(#paint4_linear_347_4)"/>
<path d="M395.301 298.758L396.504 298.09L390.49 294.615L389.287 295.283L395.301 298.758ZM409.602 290.538L410.805 289.87L404.791 286.395L403.588 287.063L409.602 290.538ZM413.144 288.467L414.347 287.799L408.332 284.324L407.13 284.992L413.144 288.467ZM398.91 296.686L400.113 296.018L394.098 292.543L392.896 293.212L398.91 296.686ZM416.753 286.395L417.955 285.727L411.941 282.252L410.738 282.92L416.753 286.395ZM402.452 294.682L403.655 294.013L397.64 290.538L396.437 291.207L402.452 294.682ZM405.994 292.61L407.196 291.942L401.182 288.467L399.979 289.135L405.994 292.61ZM431.053 278.176L432.256 277.507L426.242 274.032L425.039 274.701L431.053 278.176ZM434.595 276.104L435.798 275.436L429.784 271.961L428.581 272.629L434.595 276.104ZM420.294 284.324L421.497 283.655L415.483 280.18L414.28 280.849L420.294 284.324ZM438.204 274.032L439.407 273.364L433.392 269.889L432.189 270.557L438.204 274.032ZM427.445 280.18L428.648 279.512L422.633 276.037L421.43 276.705L427.445 280.18ZM423.903 282.252L425.106 281.584L419.092 278.109L417.889 278.777L423.903 282.252ZM356.008 321.479L357.21 320.811L351.196 317.336L349.993 318.004L356.008 321.479ZM359.549 319.407L360.752 318.739L354.738 315.264L353.535 315.932L359.549 319.407ZM445.354 269.889L446.557 269.221L440.543 265.746L439.34 266.414L445.354 269.889ZM391.76 300.83L392.962 300.161L386.948 296.686L385.745 297.355L391.76 300.83ZM363.158 317.336L364.361 316.668L358.346 313.193L357.144 313.861L363.158 317.336ZM352.399 323.551L353.602 322.882L347.587 319.407L346.385 320.076L352.399 323.551ZM348.857 325.622L350.06 324.954L344.046 321.479L342.843 322.147L348.857 325.622ZM366.7 315.264L367.903 314.596L361.888 311.121L360.685 311.789L366.7 315.264ZM384.609 304.973L385.812 304.305L379.798 300.83L378.595 301.498L384.609 304.973ZM370.308 313.193L371.511 312.524L365.497 309.049L364.294 309.718L370.308 313.193ZM381.001 307.045L382.203 306.376L376.189 302.901L374.986 303.57L381.001 307.045ZM388.151 302.901L389.354 302.233L383.339 298.758L382.137 299.426L388.151 302.901ZM373.85 311.188L375.053 310.52L369.039 307.045L367.836 307.713L373.85 311.188ZM377.459 309.116L378.662 308.448L372.647 304.973L371.444 305.641L377.459 309.116ZM441.746 271.961L442.948 271.293L436.934 267.818L435.731 268.486L441.746 271.961ZM305.955 304.906L299.94 308.381L301.143 309.049L307.158 305.574L305.955 304.906ZM302.346 302.834L296.332 306.309L297.535 306.978L303.549 303.503L302.346 302.834ZM338.098 323.484L332.084 326.959L333.287 327.627L339.301 324.152L345.315 327.627L346.518 326.959L340.504 323.484L339.368 324.152L338.098 323.484ZM298.804 300.763L292.79 304.238L293.993 304.906L300.007 301.431L298.804 300.763ZM313.105 309.049L307.091 312.524L308.294 313.193L314.308 309.718L313.105 309.049ZM291.654 296.686L285.639 300.161L286.842 300.83L292.857 297.355L291.654 296.686ZM295.196 298.758L289.181 302.233L290.384 302.901L296.398 299.426L295.196 298.758ZM323.797 315.264L317.783 318.739L318.986 319.407L325 315.932L323.797 315.264ZM330.948 319.341L324.933 322.816L326.136 323.484L332.151 320.009L330.948 319.341ZM334.556 321.412L328.542 324.887L329.745 325.555L335.759 322.08L334.556 321.412ZM316.647 311.121L310.632 314.596L311.835 315.264L317.85 311.789L316.647 311.121ZM327.406 317.269L321.392 320.744L322.594 321.412L328.609 317.937L327.406 317.269ZM320.255 313.193L314.241 316.668L315.444 317.336L321.458 313.861L320.255 313.193ZM288.045 294.615L282.031 298.09L283.234 298.758L289.248 295.283L288.045 294.615ZM309.496 306.978L303.482 310.453L304.685 311.121L310.699 307.646L309.496 306.978ZM259.444 278.109L253.429 281.584L254.632 282.252L260.646 278.777L259.444 278.109ZM255.902 276.037L249.887 279.512L251.09 280.18L257.105 276.705L255.902 276.037ZM284.503 292.543L278.489 296.018L279.692 296.686L285.706 293.212L284.503 292.543ZM252.36 273.966L246.346 277.441L247.549 278.109L253.563 274.634L252.36 273.966ZM238.059 265.746L232.045 269.221L233.248 269.889L239.262 266.414L238.059 265.746ZM241.601 267.751L235.587 271.226L236.789 271.894L242.804 268.419L241.601 267.751ZM245.21 269.822L239.195 273.297L240.398 273.966L246.412 270.491L245.21 269.822ZM277.353 288.4L271.339 291.875L272.542 292.543L278.556 289.068L277.353 288.4ZM273.744 286.328L267.73 289.803L268.933 290.472L274.947 286.997L273.744 286.328ZM263.052 280.18L257.038 283.655L258.241 284.324L264.255 280.849L263.052 280.18ZM280.895 290.472L274.88 293.947L276.083 294.615L282.098 291.14L280.895 290.472ZM266.594 282.252L260.58 285.727L261.783 286.395L267.797 282.92L266.594 282.252ZM270.203 284.257L264.188 287.732L265.391 288.4L271.405 284.925L270.203 284.257ZM248.751 271.894L242.737 275.369L243.94 276.037L249.954 272.562L248.751 271.894ZM238.059 261.603L239.262 260.934L233.248 257.459L232.045 258.128L238.059 261.603ZM245.21 257.526L246.412 256.858L240.398 253.383L239.195 254.051L245.21 257.526ZM320.255 214.156L321.458 213.488L315.444 210.013L314.241 210.681L320.255 214.156ZM316.647 216.228L317.85 215.559L311.835 212.084L310.632 212.753L316.647 216.228ZM241.601 259.531L242.804 258.863L236.789 255.388L235.587 256.056L241.601 259.531ZM323.797 212.084L325 211.416L318.986 207.941L317.783 208.609L323.797 212.084ZM248.751 255.455L249.954 254.786L243.94 251.311L242.737 251.98L248.751 255.455ZM252.36 253.383L253.563 252.715L247.549 249.24L246.346 249.908L252.36 253.383ZM309.496 220.371L310.699 219.703L304.685 216.228L303.482 216.896L309.496 220.371ZM298.804 226.519L300.007 225.851L293.993 222.376L292.79 223.044L298.804 226.519ZM255.902 251.311L257.105 250.643L251.09 247.168L249.887 247.837L255.902 251.311ZM234.451 263.674L228.436 267.149L229.639 267.818L235.653 264.343L234.451 263.674L235.653 263.006L229.639 259.531L228.436 260.199L234.451 263.674ZM295.196 228.591L296.398 227.922L290.384 224.447L289.181 225.116L295.196 228.591ZM302.346 224.514L303.549 223.846L297.535 220.371L296.332 221.039L302.346 224.514ZM288.045 232.734L289.248 232.066L283.234 228.591L282.031 229.259L288.045 232.734ZM313.105 218.299L314.308 217.631L308.294 214.156L307.091 214.824L313.105 218.299ZM291.654 230.662L292.857 229.994L286.842 226.519L285.639 227.187L291.654 230.662ZM263.052 247.168L264.255 246.5L258.241 243.025L257.038 243.693L263.052 247.168ZM266.594 245.097L267.797 244.428L261.783 240.953L260.58 241.622L266.594 245.097ZM270.203 243.025L271.405 242.357L265.391 238.882L264.188 239.55L270.203 243.025ZM330.948 208.008L332.151 207.34L326.136 203.865L324.933 204.533L330.948 208.008ZM280.895 236.877L282.098 236.209L276.083 232.734L274.88 233.402L280.895 236.877ZM273.744 241.02L274.947 240.352L268.933 236.877L267.73 237.545L273.744 241.02ZM334.556 205.936L335.759 205.268L329.745 201.793L328.542 202.461L334.556 205.936ZM327.406 210.013L328.609 209.345L322.594 205.87L321.392 206.538L327.406 210.013ZM277.353 238.949L278.556 238.28L272.542 234.805L271.339 235.474L277.353 238.949ZM259.444 249.24L260.646 248.572L254.632 245.097L253.429 245.765L259.444 249.24ZM284.503 234.805L285.706 234.137L279.692 230.662L278.489 231.33L284.503 234.805ZM305.955 222.443L307.158 221.774L301.143 218.299L299.94 218.968L305.955 222.443ZM415.483 247.168L421.497 243.693L420.294 243.025L414.28 246.5L415.483 247.168ZM444.018 263.674L442.882 264.343L448.896 267.818L450.099 267.149L444.018 263.674L450.099 260.199L448.896 259.531L442.882 263.006L444.018 263.674ZM390.49 232.734L396.504 229.259L395.301 228.591L389.287 232.066L390.49 232.734ZM440.476 261.603L446.49 258.128L445.287 257.459L439.273 260.934L440.476 261.603ZM436.934 259.531L442.948 256.056L441.746 255.388L435.731 258.863L436.934 259.531ZM422.633 251.311L428.648 247.837L427.445 247.168L421.43 250.643L422.633 251.311ZM426.175 253.383L432.189 249.908L430.987 249.24L424.972 252.715L426.175 253.383ZM433.325 257.526L439.34 254.051L438.137 253.383L432.123 256.858L433.325 257.526ZM419.025 249.24L425.039 245.765L423.836 245.097L417.822 248.572L419.025 249.24ZM429.784 255.455L435.798 251.98L434.595 251.311L428.581 254.786L429.784 255.455ZM411.874 245.097L417.889 241.622L416.686 240.953L410.671 244.428L411.874 245.097ZM369.039 220.371L375.053 216.896L373.85 216.228L367.836 219.703L369.039 220.371ZM372.58 222.443L378.595 218.968L377.392 218.299L371.378 221.774L372.58 222.443ZM358.28 214.156L364.294 210.681L363.091 210.013L357.077 213.488L358.28 214.156ZM361.888 216.228L367.903 212.753L366.7 212.084L360.685 215.559L361.888 216.228ZM365.43 218.299L371.444 214.824L370.241 214.156L364.227 217.631L365.43 218.299ZM386.881 230.662L392.896 227.187L391.693 226.519L385.678 229.994L386.881 230.662ZM383.339 228.591L389.354 225.116L388.151 224.447L382.137 227.922L383.339 228.591ZM379.731 226.519L385.745 223.044L384.542 222.376L378.528 225.851L379.731 226.519ZM376.189 224.514L382.203 221.039L381.001 220.371L374.986 223.846L376.189 224.514ZM404.724 241.02L410.738 237.545L409.535 236.877L403.521 240.352L404.724 241.02ZM354.738 212.084L360.752 208.609L359.549 207.941L353.535 211.416L354.738 212.084ZM397.573 236.877L403.588 233.402L402.385 232.734L396.371 236.209L397.573 236.877ZM408.332 243.025L414.347 239.55L413.144 238.882L407.13 242.357L408.332 243.025ZM394.032 234.805L400.046 231.33L398.843 230.662L392.829 234.137L394.032 234.805ZM401.182 238.949L407.196 235.474L405.994 234.805L399.979 238.28L401.182 238.949ZM339.234 203.13L333.22 199.655L332.017 200.323L338.031 203.798L339.234 203.13L340.37 203.865L346.385 200.39L345.182 199.722L339.234 203.13ZM351.129 210.013L357.144 206.538L355.941 205.87L349.926 209.345L351.129 210.013ZM347.587 208.008L353.602 204.533L352.399 203.865L346.385 207.34L347.587 208.008ZM343.979 205.936L349.993 202.461L348.79 201.793L342.776 205.268L343.979 205.936Z" fill="#4F6B81"/>
<path d="M394.433 257.753L394.366 271.92L339.435 303.863V289.696L394.433 257.753Z" fill="url(#paint5_linear_347_4)"/>
<path d="M339.435 289.696V303.863L284.102 271.92V257.753L339.435 289.696Z" fill="url(#paint6_linear_347_4)"/>
<path d="M285.305 257.753L339.1 226.479L393.297 257.753L339.435 289.028L285.305 257.753Z" fill="url(#paint7_linear_347_4)"/>
<path d="M304.885 257.753L339.167 237.839L373.65 257.753L339.368 277.667L304.885 257.753Z" fill="url(#paint8_radial_347_4)"/>
<path d="M306.823 256.417L308.227 255.615L302.947 252.541L301.544 253.343L306.823 256.417ZM346.919 279.539L348.322 278.737L343.043 275.663L341.64 276.531L346.919 279.539ZM352.666 276.264L354.069 275.462L348.79 272.388L347.387 273.19L352.666 276.264ZM358.413 272.923L359.817 272.121L354.537 269.047L353.134 269.849L358.413 272.923ZM312.57 253.075L313.974 252.273L308.694 249.199L307.291 250.001L312.57 253.075ZM314.442 269.648L319.721 266.574L318.317 265.772L313.038 268.846L314.442 269.648ZM331.616 279.539L336.895 276.465L335.492 275.663L330.213 278.737L331.616 279.539ZM325.869 276.264L331.148 273.19L329.745 272.388L324.465 275.462L325.869 276.264ZM308.694 266.307L313.974 263.233L312.57 262.431L307.291 265.505L308.694 266.307ZM302.947 263.032L308.227 259.958L306.823 259.157L301.544 262.231L302.947 263.032ZM320.122 272.923L325.401 269.849L323.998 269.047L318.718 272.121L320.122 272.923ZM318.251 249.801L319.654 248.999L314.375 245.925L312.971 246.727L318.251 249.801ZM369.84 266.307L371.244 265.505L365.965 262.431L364.561 263.233L369.84 266.307ZM354.537 246.46L359.817 243.386L358.413 242.584L353.134 245.658L354.537 246.46ZM366.031 253.075L371.311 250.001L369.907 249.199L364.628 252.273L366.031 253.075ZM360.284 249.801L365.564 246.727L364.16 245.925L358.881 248.999L360.284 249.801ZM348.79 243.185L354.069 240.111L352.666 239.309L347.387 242.383L348.79 243.185ZM343.043 239.844L348.322 236.77L346.919 235.968L341.64 239.042L343.043 239.844ZM375.588 263.032L376.991 262.231L371.712 259.157L370.308 259.958L375.588 263.032ZM329.745 243.185L331.148 242.383L325.869 239.309L324.465 240.111L329.745 243.185ZM323.998 246.46L325.401 245.658L320.122 242.584L318.718 243.386L323.998 246.46ZM364.093 269.648L365.497 268.846L360.217 265.772L358.814 266.574L364.093 269.648ZM335.492 239.844L336.895 239.042L331.616 235.968L330.213 236.77L335.492 239.844ZM371.712 256.417L376.991 253.343L375.588 252.541L370.308 255.615L371.712 256.417Z" fill="#6B8497"/>
<g opacity="0.31">
<path opacity="0.4" d="M217.744 85.4751V270.784L339.635 341.152L460.724 270.784V85.4751H217.744Z" fill="url(#paint9_linear_347_4)"/>
<path opacity="0.4" d="M251.759 136.864V270.316L339.568 320.971L426.71 270.316V136.864H251.759Z" fill="url(#paint10_linear_347_4)"/>
<path opacity="0.4" d="M284.971 86.5444V257.486L339.435 288.894L393.564 257.486V86.5444H284.971Z" fill="url(#paint11_linear_347_4)"/>
</g>
<g opacity="0.1">
<path opacity="0.1" d="M256.462 354.388L241.093 363.307L225.724 354.388L241.013 345.47L256.462 354.388Z" fill="#0071BC"/>
</g>
<path fill-rule="evenodd" clip-rule="evenodd" d="M287.71 199.143L338.895 233.293L347.006 228.61L348.872 226.793L297.196 193.666L287.71 199.143Z" fill="url(#paint12_linear_347_4)"/>
<path fill-rule="evenodd" clip-rule="evenodd" d="M311.456 174.472L287.853 187.642L287.776 199.346L349.326 164.881L349.324 164.395L339.768 158.728L311.456 174.472Z" fill="url(#paint13_linear_347_4)"/>
<path fill-rule="evenodd" clip-rule="evenodd" d="M348.871 226.793L353.325 219.408L305.728 188.995L297.18 193.955L348.871 226.793Z" fill="url(#paint14_linear_347_4)"/>
<path fill-rule="evenodd" clip-rule="evenodd" d="M349.315 164.344L287.709 199.171L296.988 205.118L349.315 175.451L349.315 164.344Z" fill="url(#paint15_linear_347_4)"/>
<path fill-rule="evenodd" clip-rule="evenodd" d="M330.281 227.607L340.614 234.6L391.361 198.937L381.993 193.528L330.281 227.607Z" fill="url(#paint16_linear_347_4)"/>
<path fill-rule="evenodd" clip-rule="evenodd" d="M367.76 174.429L391.195 187.506L391.271 199.125L330.162 164.907L330.164 164.424L339.651 158.798L367.76 174.429Z" fill="url(#paint17_linear_347_4)"/>
<path fill-rule="evenodd" clip-rule="evenodd" d="M330.382 164.49L391.34 198.951L382.127 204.855L330.382 175.518L330.382 164.49Z" fill="url(#paint18_linear_347_4)"/>
<path fill-rule="evenodd" clip-rule="evenodd" d="M348.794 163.836L348.913 215.155L339.871 221.048L339.725 158.605L339.726 158.604L348.794 163.836Z" fill="url(#paint19_linear_347_4)"/>
<path fill-rule="evenodd" clip-rule="evenodd" d="M330.47 227.472L339.896 221.328L339.75 158.731L330.322 164.037L330.47 227.472Z" fill="url(#paint20_linear_347_4)"/>
<path d="M330.537 227.5L330.537 216.044L363.998 194.4L373.11 199.498L330.537 227.5Z" fill="url(#paint21_linear_347_4)"/>
<path d="M300.654 168.6L339.655 146.4L380.455 169.8" stroke="url(#paint22_linear_347_4)" stroke-width="1.04058"/>
<path d="M380.454 220.8L341.454 243L300.654 219.6" stroke="url(#paint23_linear_347_4)" stroke-width="1.04058"/>
<defs>
<filter id="filter0_f_347_4" x="0.973999" y="0.260437" width="676.569" height="587.424" filterUnits="userSpaceOnUse" color-interpolation-filters="sRGB">
<feFlood flood-opacity="0" result="BackgroundImageFix"/>
<feBlend mode="normal" in="SourceGraphic" in2="BackgroundImageFix" result="shape"/>
<feGaussianBlur stdDeviation="113.5" result="effect1_foregroundBlur_347_4"/>
</filter>
<linearGradient id="paint0_linear_347_4" x1="560.81" y1="388.955" x2="556.618" y2="274.764" gradientUnits="userSpaceOnUse">
<stop offset="0.120359" stop-color="#01C3FD" stop-opacity="0"/>
<stop offset="0.22146" stop-color="#87E3FE" stop-opacity="0.285515"/>
<stop offset="0.311574" stop-color="white" stop-opacity="0.54"/>
<stop offset="0.879956" stop-color="#E7F9FF" stop-opacity="0.69"/>
</linearGradient>
<linearGradient id="paint1_linear_347_4" x1="371.5" y1="267" x2="427.159" y2="336.863" gradientUnits="userSpaceOnUse">
<stop stop-color="#AFDFE8"/>
<stop offset="0.711861" stop-color="#133856"/>
</linearGradient>
<linearGradient id="paint2_linear_347_4" x1="277.613" y1="252.402" x2="304.566" y2="319.815" gradientUnits="userSpaceOnUse">
<stop stop-color="#AFDFE8"/>
<stop offset="0.711861" stop-color="#133856"/>
</linearGradient>
<linearGradient id="paint3_linear_347_4" x1="337.121" y1="172.373" x2="384.608" y2="299.897" gradientUnits="userSpaceOnUse">
<stop stop-color="#AFDFE8"/>
<stop offset="0.711861" stop-color="#133856"/>
</linearGradient>
<linearGradient id="paint4_linear_347_4" x1="337.5" y1="188.5" x2="376.595" y2="293.503" gradientUnits="userSpaceOnUse">
<stop stop-color="#AFDFE8"/>
<stop offset="0.711861" stop-color="#133856"/>
</linearGradient>
<linearGradient id="paint5_linear_347_4" x1="382.5" y1="220" x2="420.857" y2="308.748" gradientUnits="userSpaceOnUse">
<stop stop-color="#AFDFE8"/>
<stop offset="0.711861" stop-color="#264E6F"/>
</linearGradient>
<linearGradient id="paint6_linear_347_4" x1="327.43" y1="220" x2="365.627" y2="308.917" gradientUnits="userSpaceOnUse">
<stop stop-color="#AFDFE8"/>
<stop offset="0.711861" stop-color="#264E6F"/>
</linearGradient>
<linearGradient id="paint7_linear_347_4" x1="338.347" y1="217.175" x2="371.728" y2="308.543" gradientUnits="userSpaceOnUse">
<stop stop-color="#AFDFE8"/>
<stop offset="0.711861" stop-color="#133856"/>
</linearGradient>
<radialGradient id="paint8_radial_347_4" cx="0" cy="0" r="1" gradientUnits="userSpaceOnUse" gradientTransform="translate(339 266.5) rotate(90) scale(98 138.29)">
<stop stop-color="#AFDFE8"/>
<stop offset="0.711861" stop-color="#133856"/>
</radialGradient>
<linearGradient id="paint9_linear_347_4" x1="348.274" y1="408.442" x2="359.693" y2="59.4087" gradientUnits="userSpaceOnUse">
<stop stop-color="white"/>
<stop offset="0.852811" stop-color="white" stop-opacity="0"/>
</linearGradient>
<linearGradient id="paint10_linear_347_4" x1="345.743" y1="369.424" x2="353.966" y2="118.095" gradientUnits="userSpaceOnUse">
<stop stop-color="white"/>
<stop offset="0.852811" stop-color="white" stop-opacity="0"/>
</linearGradient>
<linearGradient id="paint11_linear_347_4" x1="343.307" y1="342.149" x2="359.275" y2="66.5442" gradientUnits="userSpaceOnUse">
<stop stop-color="white"/>
<stop offset="0.852811" stop-color="white" stop-opacity="0"/>
</linearGradient>
<linearGradient id="paint12_linear_347_4" x1="337.777" y1="228.76" x2="302.028" y2="203.39" gradientUnits="userSpaceOnUse">
<stop stop-color="#02064A"/>
<stop offset="0.0001" stop-color="#89B2C1"/>
<stop offset="1" stop-color="#456783"/>
</linearGradient>
<linearGradient id="paint13_linear_347_4" x1="292.226" y1="190.128" x2="335.19" y2="167.629" gradientUnits="userSpaceOnUse">
<stop stop-color="#A2CBD6"/>
<stop offset="1" stop-color="#56778C"/>
</linearGradient>
<linearGradient id="paint14_linear_347_4" x1="336.047" y1="216.075" x2="307.793" y2="194.741" gradientUnits="userSpaceOnUse">
<stop stop-color="#8CB1BE"/>
<stop offset="1" stop-color="#5A7B8F"/>
</linearGradient>
<linearGradient id="paint15_linear_347_4" x1="295.687" y1="201.083" x2="333.971" y2="183.712" gradientUnits="userSpaceOnUse">
<stop stop-color="#698FA5"/>
<stop offset="1" stop-color="#63899F"/>
</linearGradient>
<linearGradient id="paint16_linear_347_4" x1="378.933" y1="202.285" x2="310.422" y2="239.937" gradientUnits="userSpaceOnUse">
<stop stop-color="#55768B"/>
<stop offset="1" stop-color="#91B7C3"/>
</linearGradient>
<linearGradient id="paint17_linear_347_4" x1="387.364" y1="191.281" x2="346.137" y2="169.336" gradientUnits="userSpaceOnUse">
<stop stop-color="#88AEBC"/>
<stop offset="1" stop-color="#B1D9E1"/>
</linearGradient>
<linearGradient id="paint18_linear_347_4" x1="348.732" y1="168.793" x2="346.198" y2="239.172" gradientUnits="userSpaceOnUse">
<stop stop-color="#8BB3C3"/>
<stop offset="1" stop-color="#446783"/>
</linearGradient>
<linearGradient id="paint19_linear_347_4" x1="345.273" y1="168.217" x2="345.849" y2="215.498" gradientUnits="userSpaceOnUse">
<stop stop-color="#8EB3C0"/>
<stop offset="1" stop-color="#53748A"/>
</linearGradient>
<linearGradient id="paint20_linear_347_4" x1="338.353" y1="161.874" x2="338.353" y2="209.155" gradientUnits="userSpaceOnUse">
<stop stop-color="#B3DAE3"/>
<stop offset="1" stop-color="#62869C"/>
</linearGradient>
<linearGradient id="paint21_linear_347_4" x1="312.406" y1="236.256" x2="388.517" y2="183.209" gradientUnits="userSpaceOnUse">
<stop stop-color="#8AB0BD"/>
<stop offset="1" stop-color="#B1D8E1"/>
</linearGradient>
<linearGradient id="paint22_linear_347_4" x1="340.555" y1="146.4" x2="340.555" y2="169.8" gradientUnits="userSpaceOnUse">
<stop stop-color="white"/>
<stop offset="1" stop-color="white" stop-opacity="0"/>
</linearGradient>
<linearGradient id="paint23_linear_347_4" x1="340.554" y1="243" x2="340.554" y2="219.6" gradientUnits="userSpaceOnUse">
<stop stop-color="white"/>
<stop offset="1" stop-color="white" stop-opacity="0"/>
</linearGradient>
</defs>
</svg>
