<svg width="194" height="174" viewBox="0 0 194 174" fill="none" xmlns="http://www.w3.org/2000/svg">
<path d="M111.969 17.8824C156.672 17.8824 192.911 54.6169 192.911 99.931C192.911 127.976 179.031 152.734 157.854 167.532" stroke="url(#paint0_linear_338_33)" stroke-width="2" stroke-miterlimit="10"/>
<path d="M161.851 167.817C161.851 164.922 159.574 162.647 156.675 162.647C153.776 162.647 151.498 164.922 151.498 167.817C151.498 170.713 153.776 172.988 156.675 172.988C159.574 173.195 161.851 170.713 161.851 167.817Z" fill="#103A5F" stroke="url(#paint1_linear_338_33)" stroke-width="2" stroke-miterlimit="10"/>
<path d="M71.0461 170.102C31.8085 147.448 18.2941 97.3976 40.8609 58.3107C54.8273 34.1201 79.3407 19.7984 105.298 17.7659" stroke="url(#paint2_linear_338_33)" stroke-width="2" stroke-miterlimit="10"/>
<path d="M100.547 16.7236C99.0994 19.2311 99.9345 22.3402 102.445 23.7897C104.955 25.2391 108.065 24.4077 109.513 21.9001C110.961 19.3926 110.126 16.2835 107.615 14.834C105.208 13.2055 101.995 14.216 100.547 16.7236Z" fill="#103A5F" stroke="url(#paint3_linear_338_33)" stroke-width="2" stroke-miterlimit="10"/>
<path opacity="0.39" d="M111.992 159.789C144.999 159.789 171.757 133.031 171.757 100.023C171.757 67.0157 144.999 40.2577 111.992 40.2577C78.9838 40.2577 52.2258 67.0157 52.2258 100.023C52.2258 133.031 78.9838 159.789 111.992 159.789Z" fill="url(#paint4_radial_338_33)"/>
<path fill-rule="evenodd" clip-rule="evenodd" d="M83.7122 103.749L113.182 123.411L117.852 120.715L118.927 119.669L89.1738 100.596L83.7122 103.749Z" fill="url(#paint5_linear_338_33)"/>
<path fill-rule="evenodd" clip-rule="evenodd" d="M97.3839 89.5447L83.7945 97.1274L83.7501 103.866L119.188 84.0223L119.187 83.7425L113.685 80.4796L97.3839 89.5447Z" fill="url(#paint6_linear_338_33)"/>
<path fill-rule="evenodd" clip-rule="evenodd" d="M118.926 119.669L121.49 115.416L94.0858 97.9064L89.1646 100.762L118.926 119.669Z" fill="url(#paint7_linear_338_33)"/>
<path fill-rule="evenodd" clip-rule="evenodd" d="M119.181 83.7132L83.7116 103.765L89.054 107.189L119.181 90.1084L119.181 83.7132Z" fill="url(#paint8_linear_338_33)"/>
<path fill-rule="evenodd" clip-rule="evenodd" d="M108.222 120.137L114.172 124.164L143.39 103.63L137.996 100.516L108.222 120.137Z" fill="url(#paint9_linear_338_33)"/>
<path fill-rule="evenodd" clip-rule="evenodd" d="M129.802 89.52L143.294 97.0487L143.338 103.739L108.155 84.0376L108.156 83.7591L113.617 80.5199L129.802 89.52Z" fill="url(#paint10_linear_338_33)"/>
<path fill-rule="evenodd" clip-rule="evenodd" d="M108.281 83.7973L143.378 103.638L138.074 107.038L108.281 90.1468L108.281 83.7973Z" fill="url(#paint11_linear_338_33)"/>
<path fill-rule="evenodd" clip-rule="evenodd" d="M118.881 83.4208L118.95 112.968L113.744 116.361L113.66 80.4087L113.661 80.4086L118.881 83.4208Z" fill="url(#paint12_linear_338_33)"/>
<path fill-rule="evenodd" clip-rule="evenodd" d="M108.331 120.06L113.758 116.523L113.675 80.4815L108.246 83.5366L108.331 120.06Z" fill="url(#paint13_linear_338_33)"/>
<path d="M108.37 120.076L108.37 113.48L127.636 101.018L132.882 103.954L108.37 120.076Z" fill="url(#paint14_linear_338_33)"/>
<path d="M91.1649 86.1636L113.619 73.3817L137.11 86.8545" stroke="url(#paint15_linear_338_33)" stroke-width="1.04058"/>
<path d="M137.11 116.218L114.655 129L91.1645 115.527" stroke="url(#paint16_linear_338_33)" stroke-width="1.04058"/>
<defs>
<linearGradient id="paint0_linear_338_33" x1="141.662" y1="-44.3565" x2="247.317" y2="122.18" gradientUnits="userSpaceOnUse">
<stop offset="0.212158" stop-color="#9AE8FF" stop-opacity="0"/>
<stop offset="0.461183" stop-color="#9AE8FF"/>
<stop offset="0.671825" stop-color="#0A9AFC"/>
<stop offset="0.933251" stop-color="#0A9AFC" stop-opacity="0"/>
</linearGradient>
<linearGradient id="paint1_linear_338_33" x1="155.296" y1="158.341" x2="160.257" y2="172.798" gradientUnits="userSpaceOnUse">
<stop offset="0.212158" stop-color="#9AE8FF" stop-opacity="0"/>
<stop offset="0.461183" stop-color="#9AE8FF"/>
<stop offset="0.671825" stop-color="#0A9AFC"/>
<stop offset="0.933251" stop-color="#0A9AFC" stop-opacity="0"/>
</linearGradient>
<linearGradient id="paint2_linear_338_33" x1="13.9881" y1="208.741" x2="7.29748" y2="11.4427" gradientUnits="userSpaceOnUse">
<stop offset="0.212158" stop-color="#9AE8FF" stop-opacity="0"/>
<stop offset="0.461183" stop-color="#9AE8FF"/>
<stop offset="0.671825" stop-color="#0A9AFC"/>
<stop offset="0.933251" stop-color="#0A9AFC" stop-opacity="0"/>
</linearGradient>
<linearGradient id="paint3_linear_338_33" x1="101.486" y1="28.2079" x2="104.418" y2="13.2079" gradientUnits="userSpaceOnUse">
<stop offset="0.212158" stop-color="#9AE8FF" stop-opacity="0"/>
<stop offset="0.461183" stop-color="#9AE8FF"/>
<stop offset="0.671825" stop-color="#0A9AFC"/>
<stop offset="0.933251" stop-color="#0A9AFC" stop-opacity="0"/>
</linearGradient>
<radialGradient id="paint4_radial_338_33" cx="0" cy="0" r="1" gradientUnits="userSpaceOnUse" gradientTransform="translate(112.005 100.011) scale(74.2636)">
<stop stop-color="#11639D"/>
<stop offset="0.99" stop-color="white" stop-opacity="0"/>
</radialGradient>
<linearGradient id="paint5_linear_338_33" x1="112.538" y1="120.801" x2="91.9556" y2="106.194" gradientUnits="userSpaceOnUse">
<stop stop-color="#02064A"/>
<stop offset="0.0001" stop-color="#89B2C1"/>
<stop offset="1" stop-color="#456783"/>
</linearGradient>
<linearGradient id="paint6_linear_338_33" x1="86.312" y1="98.5586" x2="111.049" y2="85.6045" gradientUnits="userSpaceOnUse">
<stop stop-color="#A2CBD6"/>
<stop offset="1" stop-color="#56778C"/>
</linearGradient>
<linearGradient id="paint7_linear_338_33" x1="111.542" y1="113.498" x2="95.2751" y2="101.214" gradientUnits="userSpaceOnUse">
<stop stop-color="#8CB1BE"/>
<stop offset="1" stop-color="#5A7B8F"/>
</linearGradient>
<linearGradient id="paint8_linear_338_33" x1="88.3048" y1="104.866" x2="110.347" y2="94.8645" gradientUnits="userSpaceOnUse">
<stop stop-color="#698FA5"/>
<stop offset="1" stop-color="#63899F"/>
</linearGradient>
<linearGradient id="paint9_linear_338_33" x1="136.234" y1="105.558" x2="96.7887" y2="127.237" gradientUnits="userSpaceOnUse">
<stop stop-color="#55768B"/>
<stop offset="1" stop-color="#91B7C3"/>
</linearGradient>
<linearGradient id="paint10_linear_338_33" x1="141.088" y1="99.2224" x2="117.352" y2="86.5874" gradientUnits="userSpaceOnUse">
<stop stop-color="#88AEBC"/>
<stop offset="1" stop-color="#B1D9E1"/>
</linearGradient>
<linearGradient id="paint11_linear_338_33" x1="118.846" y1="86.2749" x2="117.387" y2="126.796" gradientUnits="userSpaceOnUse">
<stop stop-color="#8BB3C3"/>
<stop offset="1" stop-color="#446783"/>
</linearGradient>
<linearGradient id="paint12_linear_338_33" x1="116.854" y1="85.9431" x2="117.186" y2="113.166" gradientUnits="userSpaceOnUse">
<stop stop-color="#8EB3C0"/>
<stop offset="1" stop-color="#53748A"/>
</linearGradient>
<linearGradient id="paint13_linear_338_33" x1="112.87" y1="82.2913" x2="112.87" y2="109.514" gradientUnits="userSpaceOnUse">
<stop stop-color="#B3DAE3"/>
<stop offset="1" stop-color="#62869C"/>
</linearGradient>
<linearGradient id="paint14_linear_338_33" x1="97.931" y1="125.117" x2="141.753" y2="94.5748" gradientUnits="userSpaceOnUse">
<stop stop-color="#8AB0BD"/>
<stop offset="1" stop-color="#B1D8E1"/>
</linearGradient>
<linearGradient id="paint15_linear_338_33" x1="114.138" y1="73.3817" x2="114.138" y2="86.8545" gradientUnits="userSpaceOnUse">
<stop stop-color="white"/>
<stop offset="1" stop-color="white" stop-opacity="0"/>
</linearGradient>
<linearGradient id="paint16_linear_338_33" x1="114.137" y1="129" x2="114.137" y2="115.527" gradientUnits="userSpaceOnUse">
<stop stop-color="white"/>
<stop offset="1" stop-color="white" stop-opacity="0"/>
</linearGradient>
</defs>
</svg>
