<svg width="80" height="80" viewBox="0 0 80 80" fill="none" xmlns="http://www.w3.org/2000/svg">
<g filter="url(#filter0_b_7_5455)">
<circle cx="39.5883" cy="24" r="24" fill="#C7E1DB" fill-opacity="0.11"/>
</g>
<g filter="url(#filter1_d_7_5455)">
<g filter="url(#filter2_d_7_5455)">
<path d="M45.9584 18.9258C45.7012 18.9258 45.4919 19.1257 45.4919 19.3713C45.4919 19.617 45.7012 19.8169 45.9584 19.8169C46.2156 19.8169 46.4248 19.617 46.4248 19.3713C46.4248 19.1257 46.2156 18.9258 45.9584 18.9258Z" fill="url(#paint0_linear_7_5455)"/>
<path d="M40.3737 20.7559C38.0936 20.7559 36.2385 22.5279 36.2385 24.7059C36.2385 26.8839 38.0936 28.656 40.3737 28.656C42.6539 28.656 44.509 26.884 44.509 24.7059C44.509 22.5279 42.6539 20.7559 40.3737 20.7559Z" fill="url(#paint1_linear_7_5455)"/>
<path d="M44.7132 15.5293H36.034C33.1297 15.5293 30.767 17.7863 30.767 20.5605V28.8511C30.767 31.6253 33.1297 33.8822 36.034 33.8822H44.7132C47.6175 33.8822 49.9802 31.6253 49.9802 28.8511V20.5605C49.9802 17.7863 47.6175 15.5293 44.7132 15.5293ZM40.3736 29.7396C37.4678 29.7396 35.1038 27.4815 35.1038 24.7058C35.1038 21.9301 37.4678 19.672 40.3736 19.672C43.2794 19.672 45.6434 21.9301 45.6434 24.7058C45.6434 27.4814 43.2794 29.7396 40.3736 29.7396ZM45.9586 20.9003C45.0758 20.9003 44.3575 20.2142 44.3575 19.3709C44.3575 18.5276 45.0758 17.8414 45.9586 17.8414C46.8414 17.8414 47.5597 18.5275 47.5597 19.3708C47.5597 20.2141 46.8414 20.9003 45.9586 20.9003Z" fill="url(#paint2_linear_7_5455)"/>
</g>
</g>
<defs>
<filter id="filter0_b_7_5455" x="-34.4117" y="-50" width="148" height="148" filterUnits="userSpaceOnUse" color-interpolation-filters="sRGB">
<feFlood flood-opacity="0" result="BackgroundImageFix"/>
<feGaussianBlur in="BackgroundImageFix" stdDeviation="25"/>
<feComposite in2="SourceAlpha" operator="in" result="effect1_backgroundBlur_7_5455"/>
<feBlend mode="normal" in="SourceGraphic" in2="effect1_backgroundBlur_7_5455" result="shape"/>
</filter>
<filter id="filter1_d_7_5455" x="0.766968" y="1.5293" width="79.2133" height="78.353" filterUnits="userSpaceOnUse" color-interpolation-filters="sRGB">
<feFlood flood-opacity="0" result="BackgroundImageFix"/>
<feColorMatrix in="SourceAlpha" type="matrix" values="0 0 0 0 0 0 0 0 0 0 0 0 0 0 0 0 0 0 127 0" result="hardAlpha"/>
<feOffset dy="16"/>
<feGaussianBlur stdDeviation="15"/>
<feComposite in2="hardAlpha" operator="out"/>
<feColorMatrix type="matrix" values="0 0 0 0 0 0 0 0 0 0.220306 0 0 0 0 0.379167 0 0 0 1 0"/>
<feBlend mode="normal" in2="BackgroundImageFix" result="effect1_dropShadow_7_5455"/>
<feBlend mode="normal" in="SourceGraphic" in2="effect1_dropShadow_7_5455" result="shape"/>
</filter>
<filter id="filter2_d_7_5455" x="0.766968" y="1.5293" width="79.2133" height="78.353" filterUnits="userSpaceOnUse" color-interpolation-filters="sRGB">
<feFlood flood-opacity="0" result="BackgroundImageFix"/>
<feColorMatrix in="SourceAlpha" type="matrix" values="0 0 0 0 0 0 0 0 0 0 0 0 0 0 0 0 0 0 127 0" result="hardAlpha"/>
<feOffset dy="16"/>
<feGaussianBlur stdDeviation="15"/>
<feComposite in2="hardAlpha" operator="out"/>
<feColorMatrix type="matrix" values="0 0 0 0 0 0 0 0 0 0.220306 0 0 0 0 0.379167 0 0 0 1 0"/>
<feBlend mode="normal" in2="BackgroundImageFix" result="effect1_dropShadow_7_5455"/>
<feBlend mode="normal" in="SourceGraphic" in2="effect1_dropShadow_7_5455" result="shape"/>
</filter>
<linearGradient id="paint0_linear_7_5455" x1="45.8163" y1="19.76" x2="46.2537" y2="19.5547" gradientUnits="userSpaceOnUse">
<stop offset="1" stop-color="#3DB2E8"/>
</linearGradient>
<linearGradient id="paint1_linear_7_5455" x1="39.1142" y1="28.1517" x2="42.9915" y2="26.3313" gradientUnits="userSpaceOnUse">
<stop offset="1" stop-color="#3DB2E8"/>
</linearGradient>
<linearGradient id="paint2_linear_7_5455" x1="37.4474" y1="32.7108" x2="46.4549" y2="28.4816" gradientUnits="userSpaceOnUse">
<stop offset="1" stop-color="#3DB2E8"/>
</linearGradient>
</defs>
</svg>
